<svg xmlns="http://www.w3.org/2000/svg" xmlns:xlink="http://www.w3.org/1999/xlink" width="500" zoomAndPan="magnify" viewBox="0 0 375 374.999991" height="500" preserveAspectRatio="xMidYMid meet" version="1.2"><defs><clipPath id="1f577c441c"><path d="M 94.847656 112.332031 L 280.097656 112.332031 L 280.097656 262.332031 L 94.847656 262.332031 Z M 94.847656 112.332031 "/></clipPath></defs><g id="42338da58f"><g clip-rule="nonzero" clip-path="url(#1f577c441c)"><path style=" stroke:none;fill-rule:nonzero;fill:#f96008;fill-opacity:1;" d="M 216.089844 231.066406 L 224.214844 226.332031 L 187.503906 165.820312 L 150.792969 226.332031 L 158.917969 231.070312 L 187.503906 184.710938 Z M 223.371094 242.882812 L 223.59375 243.238281 L 194.75 233.210938 L 201.804688 229.101562 L 187.503906 205.53125 L 173.207031 229.101562 L 180.257812 233.210938 L 151.414062 243.238281 L 151.632812 242.882812 L 121.578125 253.332031 L 188.371094 149.28125 L 252.679688 253.070312 Z M 267.136719 258.101562 L 280.15625 262.625 L 199.539062 131.882812 L 194.144531 140.289062 Z M 106.828125 258.460938 L 94.851562 262.625 L 187.507812 112.367188 L 193.925781 122.777344 L 106.828125 258.460938 "/></g></g></svg>